
<svg version="1.0" xmlns="http://www.w3.org/2000/svg" fill="currentColor" viewBox="0 0 1344.000000 1350.000000"
 preserveAspectRatio="xMidYMid meet">
<g transform="translate(0.000000,1350.000000) scale(0.100000,-0.100000)"
fill="currentColor" stroke="none">
<path d="M6732 13339 c-29 -11 -36 -30 -68 -174 -43 -197 -156 -556 -232 -734
l-15 -36 -19 45 c-10 24 -50 152 -89 285 -74 251 -134 442 -147 462 -22 35
-91 32 -111 -5 -23 -44 -51 -536 -51 -918 0 -209 1 -222 20 -239 25 -23 76
-24 98 -1 15 15 18 55 22 376 3 197 8 361 11 364 3 3 29 -74 58 -172 59 -199
135 -399 159 -423 30 -30 58 -32 87 -7 19 17 49 82 109 238 45 118 96 253 111
300 l29 85 7 -50 c11 -72 27 -332 35 -543 7 -179 7 -183 32 -202 33 -26 58
-25 87 4 23 23 24 28 19 133 -14 324 -27 522 -39 641 -8 74 -15 220 -15 325 0
132 -4 200 -13 216 -14 28 -53 42 -85 30z"/>
<path d="M5327 13263 c-10 -12 -20 -55 -27 -123 -22 -197 -118 -600 -152 -637
-16 -17 -19 -29 -14 -57 4 -19 -1 -88 -10 -153 -21 -152 -16 -368 9 -407 13
-19 26 -26 51 -26 56 0 61 14 62 194 0 160 18 321 36 332 10 6 226 33 269 34
23 0 30 -8 48 -53 29 -72 106 -189 172 -263 30 -33 61 -74 68 -91 17 -41 58
-59 95 -42 58 27 43 102 -40 199 -106 124 -146 188 -214 353 -38 89 -93 222
-124 295 -59 141 -101 280 -112 372 -8 66 -26 90 -69 90 -18 0 -39 -8 -48 -17z
m190 -708 c-7 -5 -200 -26 -203 -22 -4 4 57 266 72 307 3 8 34 -51 70 -134 35
-82 63 -150 61 -151z"/>
<path d="M8418 13088 c-9 -7 -30 -60 -48 -118 -17 -58 -71 -206 -119 -330 -49
-124 -101 -263 -116 -310 l-29 -85 -17 97 c-24 137 -71 281 -146 448 -36 80
-67 158 -69 174 -5 39 -16 50 -64 66 -37 12 -43 12 -68 -7 -24 -18 -27 -27
-25 -72 2 -36 -15 -119 -51 -264 -80 -316 -133 -658 -109 -710 16 -34 60 -43
92 -19 21 15 28 31 34 83 36 278 120 695 138 683 14 -8 88 -208 113 -305 13
-51 34 -170 46 -263 34 -267 52 -316 115 -316 56 0 60 9 129 300 37 156 65
238 174 510 70 177 132 359 132 392 0 45 -74 75 -112 46z"/>
<path d="M4572 13060 c-12 -5 -27 -21 -33 -34 -10 -22 -5 -41 39 -143 27 -65
62 -156 76 -203 26 -88 66 -259 66 -284 0 -24 -136 -84 -264 -116 -65 -17
-126 -30 -136 -30 -14 0 -30 36 -75 168 -63 187 -157 379 -191 394 -33 15 -72
2 -88 -30 -14 -28 -12 -34 52 -163 66 -132 163 -400 162 -449 0 -14 7 -35 15
-47 8 -11 34 -72 58 -134 52 -135 119 -271 147 -299 39 -39 110 -11 110 44 0
13 -21 63 -46 111 -42 78 -114 247 -114 266 0 4 44 17 98 30 119 27 202 53
264 84 26 13 49 21 52 17 2 -4 16 -50 31 -102 35 -123 93 -280 112 -302 21
-23 46 -27 81 -13 45 20 46 42 7 143 -45 118 -113 351 -169 582 -56 229 -72
276 -162 466 -12 24 -53 58 -67 53 -1 0 -12 -4 -25 -9z"/>
<path d="M9102 12798 c-11 -13 -55 -64 -97 -115 -92 -112 -388 -395 -422 -405
-35 -10 -53 -27 -53 -53 0 -12 -10 -30 -21 -41 -12 -10 -49 -53 -84 -94 -108
-130 -195 -279 -195 -334 0 -31 30 -56 67 -56 36 0 49 14 97 105 39 76 97 157
176 247 l50 57 133 -64 c125 -61 132 -66 130 -92 -14 -202 -14 -244 1 -334 8
-52 13 -112 9 -132 -11 -68 55 -111 107 -69 30 24 36 89 20 205 -18 134 -15
224 13 382 14 77 35 200 47 274 28 171 50 260 96 374 42 104 44 125 13 150
-29 23 -63 21 -87 -5z m-159 -518 c-14 -85 -26 -156 -28 -158 -5 -5 -185 81
-185 89 0 7 233 230 236 226 1 -1 -10 -72 -23 -157z"/>
<path d="M3715 12614 c-71 -25 -146 -51 -165 -57 -64 -21 -325 -154 -358 -182
-42 -35 -41 -77 1 -109 l27 -20 140 73 c100 51 141 69 145 59 95 -281 190
-452 421 -759 93 -124 108 -139 134 -139 36 0 70 31 70 64 0 14 -36 73 -92
147 -135 183 -243 351 -299 464 -52 106 -112 272 -103 286 2 4 62 27 132 49
126 41 162 63 162 100 0 27 -39 70 -63 70 -12 0 -80 -21 -152 -46z"/>
<path d="M9569 12339 c-14 -14 -19 -29 -16 -46 4 -20 -20 -65 -101 -197 -108
-173 -251 -446 -311 -590 -36 -88 -34 -116 14 -138 39 -17 72 3 97 60 112 258
321 633 341 613 8 -8 11 -78 11 -219 0 -190 -2 -222 -32 -385 -18 -98 -32
-198 -32 -221 0 -55 30 -96 70 -96 37 0 66 36 147 178 98 171 148 243 321 459
184 231 282 368 282 395 0 46 -45 83 -88 72 -11 -3 -49 -49 -85 -102 -36 -54
-134 -182 -218 -287 -83 -104 -174 -221 -202 -260 -34 -49 -48 -62 -43 -43 13
56 26 276 21 348 -4 41 -13 137 -22 213 -8 76 -13 150 -10 165 14 76 -90 135
-144 81z"/>
<path d="M3026 12259 c-43 -34 -40 -45 70 -231 140 -237 196 -380 215 -547 7
-56 9 -104 6 -107 -18 -18 -266 168 -482 363 -172 154 -245 213 -263 213 -27
0 -59 -27 -66 -54 -4 -17 8 -52 43 -123 54 -107 90 -221 121 -383 24 -119 50
-333 50 -400 l0 -44 -42 40 c-42 39 -186 164 -448 386 -69 58 -140 120 -159
137 -49 44 -94 42 -120 -6 -22 -43 -3 -70 128 -181 359 -304 544 -464 618
-534 89 -85 110 -92 148 -53 30 29 30 27 10 272 -16 200 -43 384 -75 522 -11
46 -19 85 -17 87 1 1 41 -31 87 -72 174 -154 430 -331 508 -351 33 -8 71 12
83 44 7 18 9 81 6 173 -6 164 -30 276 -90 418 -41 97 -220 409 -249 435 -26
23 -49 22 -82 -4z"/>
<path d="M10515 11839 c-101 -89 -171 -159 -213 -214 -89 -116 -198 -240 -339
-385 -110 -113 -151 -149 -181 -158 -42 -13 -62 -42 -62 -93 0 -42 15 -66 46
-73 15 -4 55 -32 88 -62 124 -111 326 -182 487 -171 169 11 281 98 374 290
176 365 177 574 3 784 -23 29 -52 64 -63 78 -13 16 -34 27 -61 31 -37 5 -45 2
-79 -27z m160 -260 c28 -51 30 -60 30 -164 0 -122 -8 -150 -92 -341 -54 -123
-125 -211 -196 -239 -57 -23 -158 -21 -252 4 -96 27 -158 58 -215 109 l-45 40
105 109 c170 174 312 332 377 418 33 44 89 107 124 139 l63 59 36 -40 c19 -22
49 -65 65 -94z"/>
<path d="M1825 11015 c-278 -37 -369 -67 -435 -142 -57 -64 -59 -137 -8 -238
54 -105 205 -304 289 -380 74 -67 227 -120 379 -132 86 -6 140 5 194 42 20 14
43 25 51 25 26 0 82 59 104 109 30 71 36 168 17 281 -35 203 -92 327 -184 397
-83 63 -164 71 -407 38z m298 -129 c72 -29 126 -127 153 -276 14 -78 17 -199
6 -236 -7 -20 -74 -78 -120 -103 -55 -29 -244 -1 -348 52 -95 48 -334 361
-334 438 0 48 91 81 315 114 177 27 283 30 328 11z"/>
<path d="M11555 10958 c-153 -79 -594 -224 -645 -213 -22 5 -36 0 -61 -22 -19
-16 -61 -39 -94 -52 -218 -87 -406 -219 -390 -274 9 -29 42 -57 69 -57 11 0
53 24 93 54 89 67 343 192 356 175 1 -2 43 -55 91 -117 l88 -113 -35 -52 c-62
-93 -85 -140 -123 -252 -20 -60 -45 -122 -55 -137 -21 -29 -24 -51 -9 -78 28
-53 93 -45 130 16 12 18 36 77 54 131 49 142 67 179 131 268 32 44 112 155
178 247 136 191 203 271 300 353 74 65 85 97 47 135 -27 27 -54 25 -125 -12z
m-231 -250 c-20 -34 -166 -238 -174 -243 -9 -6 -129 133 -130 150 0 6 66 31
148 56 170 54 165 53 156 37z"/>
<path d="M1012 10410 c-80 -58 -126 -159 -138 -301 -17 -220 75 -544 191 -668
57 -61 175 -122 295 -152 68 -17 104 -21 191 -17 96 4 114 8 173 37 71 35 112
79 149 158 18 40 22 65 22 153 0 89 -4 116 -27 179 -15 41 -26 76 -25 78 2 1
31 -16 66 -39 53 -36 66 -40 89 -32 35 12 58 58 44 89 -6 12 -86 74 -178 139
-144 100 -173 116 -207 116 -54 0 -100 -24 -150 -80 -52 -58 -159 -246 -159
-279 -1 -30 35 -61 68 -61 33 0 52 22 103 115 24 44 53 93 64 108 l19 28 30
-28 c56 -53 138 -252 138 -333 0 -84 -57 -174 -124 -200 -42 -16 -201 -13
-267 4 -201 53 -272 132 -336 372 -22 83 -26 121 -27 239 -1 162 8 199 64 255
21 21 43 48 49 59 20 37 -17 91 -62 91 -8 0 -33 -13 -55 -30z"/>
<path d="M11788 10383 c-8 -10 -18 -25 -21 -34 -3 -9 -82 -65 -176 -125 -257
-164 -556 -394 -590 -456 -14 -25 -14 -29 5 -55 39 -52 66 -44 184 53 180 150
495 372 508 359 6 -6 -33 -111 -78 -210 -47 -103 -98 -186 -205 -332 -109
-150 -150 -229 -136 -266 12 -32 45 -51 76 -43 12 3 98 56 191 117 131 86 243
148 499 275 315 155 405 209 405 239 0 27 -22 63 -46 74 -27 12 -43 8 -99 -28
-22 -14 -193 -102 -381 -196 l-341 -170 54 83 c73 111 140 255 202 437 29 82
58 157 66 166 19 20 19 43 0 79 -26 50 -87 67 -117 33z"/>
<path d="M6410 8975 l0 -85 -95 0 -95 0 0 -70 0 -70 95 0 95 0 0 -168 0 -168
65 0 65 1 0 168 0 167 100 0 100 0 0 70 0 70 -100 0 -100 0 0 85 0 85 -65 0
-65 0 0 -85z"/>
<path d="M6235 8364 c-183 -24 -308 -65 -320 -104 -5 -16 37 -179 151 -580 3
-13 58 -15 412 -16 l407 -1 82 291 c93 332 93 320 0 354 -173 65 -489 89 -732
56z"/>
<path d="M6044 7596 c-3 -8 -4 -29 -2 -48 l3 -33 428 -3 427 -2 11 24 c7 14 9
36 5 50 l-6 26 -431 0 c-360 0 -431 -2 -435 -14z"/>
<path d="M5985 7426 c-4 -19 -2 -43 4 -55 12 -21 12 -21 494 -19 l482 3 0 50
0 50 -487 3 -487 2 -6 -34z"/>
<path d="M5926 7284 c-19 -18 -22 -114 -6 -145 10 -18 27 -19 559 -19 l548 0
11 25 c17 37 15 107 -4 133 l-15 22 -539 0 c-476 0 -540 -2 -554 -16z"/>
<path d="M6083 7043 c4 -16 13 -59 21 -98 70 -320 30 -819 -105 -1311 -73
-267 -177 -522 -244 -602 l-27 -32 752 0 752 0 -33 37 c-97 111 -240 526 -318
923 -47 241 -56 335 -55 610 0 267 6 323 50 478 l6 22 -402 0 -402 0 5 -27z"/>
<path d="M9711 7012 c-27 -27 -28 -30 -34 -183 -4 -85 -25 -301 -47 -480 -22
-178 -46 -392 -52 -475 l-12 -151 -41 91 c-103 230 -209 397 -408 646 -68 85
-127 168 -131 183 -16 66 -139 91 -196 40 -44 -40 -50 -90 -16 -129 l25 -31 0
-349 c0 -367 7 -481 46 -787 27 -210 40 -245 93 -261 25 -7 41 -5 68 7 58 28
59 40 30 283 -32 274 -48 534 -44 732 l3 154 67 -89 c162 -215 249 -374 363
-663 85 -215 143 -336 182 -374 34 -35 91 -35 130 -2 l28 24 6 404 c6 399 7
406 48 718 44 334 66 625 51 664 -23 60 -112 76 -159 28z"/>
<path d="M3820 6784 c-220 -59 -482 -264 -688 -539 -141 -188 -183 -319 -163
-501 25 -223 96 -406 215 -556 163 -205 377 -252 615 -135 97 47 197 139 271
249 25 37 47 68 50 68 3 0 4 -39 2 -87 -5 -120 2 -150 41 -173 39 -24 59 -25
103 -4 22 11 36 26 43 47 14 47 23 581 10 615 -17 45 -79 101 -139 123 -70 27
-212 35 -405 21 -133 -9 -140 -11 -162 -36 -35 -41 -32 -99 7 -138 l31 -30
107 8 c59 5 148 9 197 9 l90 0 -2 -43 c-4 -87 -128 -290 -242 -395 -92 -86
-211 -122 -304 -93 -70 21 -107 50 -167 130 -134 179 -203 451 -155 613 8 28
43 93 76 145 74 113 286 327 403 407 152 104 289 141 393 107 58 -19 92 -14
123 19 26 28 29 84 7 119 -37 56 -232 83 -357 50z"/>
<path d="M555 6270 c-11 -4 -105 -94 -210 -199 l-190 -191 197 -197 c185 -185
199 -197 234 -197 46 0 84 39 84 86 0 27 -19 51 -130 162 -119 120 -131 130
-150 118 -11 -7 -20 -9 -20 -6 0 3 68 75 150 159 127 130 150 157 150 183 0
57 -66 104 -115 82z"/>
<path d="M1119 6265 c-15 -8 -29 -20 -32 -27 -3 -7 -66 -154 -141 -327 -79
-184 -136 -328 -136 -346 0 -66 94 -106 139 -59 16 16 250 543 287 646 17 49
3 93 -37 113 -34 18 -47 18 -80 0z"/>
<path d="M1422 6255 c-25 -21 -32 -34 -32 -63 0 -34 13 -50 151 -195 92 -96
140 -153 123 -145 -27 13 -29 11 -151 -117 -110 -116 -123 -134 -123 -166 0
-47 37 -83 86 -83 33 0 50 15 232 197 l196 197 -194 195 c-218 217 -233 227
-288 180z"/>
<path d="M11865 6262 c-16 -11 -108 -101 -204 -200 l-173 -182 181 -189 c100
-104 195 -194 212 -201 23 -10 35 -10 59 0 38 16 50 37 50 86 0 35 -10 47
-125 163 l-125 126 -32 -18 c-19 -11 32 47 119 135 84 84 157 165 162 180 14
38 -4 85 -40 103 -36 19 -48 19 -84 -3z"/>
<path d="M12453 6270 c-12 -5 -29 -19 -37 -32 -8 -13 -76 -166 -151 -340 -151
-351 -153 -361 -92 -399 37 -23 72 -18 103 14 26 27 294 648 294 682 0 51 -68
95 -117 75z"/>
<path d="M12760 6267 c-13 -7 -30 -24 -38 -37 -26 -51 -10 -77 156 -244 87
-88 143 -150 124 -140 l-32 19 -127 -128 c-121 -120 -128 -129 -128 -167 0
-52 31 -84 80 -84 33 0 51 15 233 197 l197 197 -201 200 c-124 124 -207 200
-220 200 -10 0 -30 -6 -44 -13z"/>
<path d="M5642 4938 c-16 -16 -15 -73 2 -87 10 -8 238 -10 842 -9 l829 3 9 27
c7 18 6 35 -2 53 l-12 25 -828 0 c-631 0 -831 -3 -840 -12z"/>
<path d="M5753 4745 c-3 -78 -35 -125 -168 -250 -141 -132 -172 -178 -181
-262 -5 -48 -3 -67 14 -100 25 -48 70 -88 132 -117 45 -21 51 -21 925 -21
l880 0 56 26 c148 70 186 194 99 327 -21 33 -79 94 -137 145 -121 104 -160
160 -169 240 l-7 57 -721 0 -721 0 -2 -45z"/>
<path d="M3777 1849 c-112 -38 -186 -103 -235 -207 -15 -31 -27 -58 -28 -60
-1 -2 -29 10 -63 27 -71 36 -82 37 -105 12 -29 -32 -12 -58 65 -96 38 -20 69
-37 69 -38 0 -11 -115 -337 -126 -359 -29 -56 -10 -103 38 -96 29 4 42 32 113
241 38 111 62 167 71 167 8 0 38 -12 66 -26 59 -30 95 -26 104 11 8 34 -3 45
-78 80 -35 16 -65 30 -66 31 -8 5 40 99 68 134 34 43 131 97 192 106 34 6 39
4 58 -27 11 -19 25 -51 30 -71 6 -22 18 -39 30 -43 22 -7 55 8 63 29 13 34
-36 140 -83 180 -39 32 -99 34 -183 5z"/>
<path d="M9378 1599 c-23 -13 -23 -52 1 -120 16 -48 61 -276 61 -311 0 -7 -46
33 -102 88 -57 56 -119 111 -138 124 -19 13 -47 34 -62 48 -32 29 -65 23 -74
-15 -9 -36 1 -49 87 -114 41 -31 98 -82 126 -113 83 -91 177 -166 206 -166 33
0 57 42 57 99 0 66 -48 321 -75 401 -31 89 -46 103 -87 79z"/>
<path d="M8308 1519 c-10 -5 -18 -19 -18 -29 0 -15 93 -277 134 -380 4 -11 -7
-22 -39 -39 -25 -13 -71 -52 -102 -85 -128 -138 -140 -277 -31 -371 68 -58
163 -64 290 -19 54 19 55 18 70 -13 23 -48 88 -39 88 11 0 12 -22 87 -49 166
-55 164 -254 702 -274 740 -14 28 -42 35 -69 19z m204 -646 c25 -71 49 -138
52 -150 6 -19 1 -23 -51 -39 -77 -23 -155 -29 -182 -14 -30 15 -61 69 -61 103
0 35 22 79 69 136 35 43 96 91 116 91 6 0 32 -57 57 -127z"/>
<path d="M4561 1506 c-7 -8 -23 -54 -36 -103 -41 -152 -126 -377 -240 -633
-68 -152 -67 -146 -46 -171 13 -17 24 -20 43 -16 22 6 36 30 92 157 118 268
191 460 236 619 35 121 35 125 14 145 -19 20 -48 21 -63 2z"/>
<path d="M4795 1440 c-16 -6 -26 -32 -48 -124 -36 -151 -108 -369 -197 -595
-74 -186 -77 -209 -35 -225 35 -13 54 15 115 171 126 322 243 705 227 747 -9
22 -39 35 -62 26z"/>
<path d="M8838 1326 c-107 -39 -147 -103 -173 -281 -5 -36 -2 -45 32 -84 104
-123 159 -155 264 -156 90 0 152 37 191 115 40 82 42 96 18 120 -32 32 -52 21
-82 -41 -34 -72 -68 -99 -124 -99 -23 0 -55 5 -71 11 -28 10 -93 67 -93 81 0
4 19 12 43 19 75 20 182 75 210 108 52 62 28 154 -53 196 -42 22 -120 27 -162
11z m130 -106 c12 -12 22 -25 22 -30 0 -19 -171 -100 -212 -100 -31 0 18 112
60 134 40 22 104 20 130 -4z"/>
<path d="M3773 1308 c-12 -17 -46 -99 -68 -166 -12 -37 -16 -76 -13 -126 3
-62 8 -79 32 -111 57 -75 200 -109 293 -70 l36 15 -7 -32 c-4 -18 -10 -54 -13
-79 -5 -42 -3 -48 17 -59 45 -24 63 -2 88 106 21 88 68 235 103 321 11 28 11
34 -6 52 -37 42 -61 26 -116 -79 -46 -88 -113 -156 -162 -165 -58 -11 -107 3
-145 41 -34 34 -35 36 -28 95 3 33 19 93 36 132 32 78 37 106 18 125 -16 16
-53 15 -65 0z"/>
<path d="M7224 1212 c-6 -4 -13 -15 -17 -24 -10 -27 21 -206 73 -428 50 -210
74 -328 86 -413 8 -56 35 -78 73 -58 24 14 26 38 10 142 -6 39 -8 73 -5 76 3
3 76 -29 162 -71 86 -42 167 -76 180 -76 29 0 47 35 32 63 -7 14 -233 133
-342 181 -6 3 16 29 49 58 33 29 89 81 124 115 62 58 64 62 53 87 -14 30 -39
43 -57 30 -7 -5 -63 -53 -124 -106 -62 -54 -115 -98 -120 -98 -10 0 -77 296
-95 416 -7 50 -16 96 -20 102 -8 13 -45 16 -62 4z"/>
<path d="M5991 1186 c-14 -17 -37 -186 -47 -344 -3 -62 -9 -114 -13 -116 -3
-2 -45 6 -93 17 -101 23 -121 17 -116 -37 3 -31 5 -31 103 -55 55 -13 101 -25
103 -26 6 -5 -20 -244 -34 -309 -17 -80 -12 -104 22 -112 33 -8 50 8 63 62 16
63 41 240 41 293 l0 43 65 -7 c75 -8 95 2 95 46 0 35 -6 39 -81 49 -34 5 -63
11 -66 14 -6 6 14 261 29 378 9 70 9 90 -2 102 -16 20 -54 21 -69 2z"/>
<path d="M5320 871 c-88 -31 -142 -103 -125 -168 16 -65 82 -102 238 -133 66
-13 117 -50 117 -85 0 -37 -36 -55 -110 -55 -99 0 -138 15 -192 72 -40 42 -52
49 -73 44 -68 -17 -23 -119 75 -169 114 -58 271 -59 346 -2 76 58 63 182 -25
240 -21 14 -84 37 -140 51 -118 29 -143 41 -139 68 9 60 158 79 250 32 54 -28
81 -27 98 5 16 30 -3 54 -66 84 -77 37 -178 43 -254 16z"/>
<path d="M7065 826 c-109 -35 -199 -105 -230 -178 -31 -75 -9 -185 48 -246 49
-53 156 -87 239 -76 53 7 78 24 78 54 0 36 -25 49 -88 43 -102 -9 -171 30
-193 109 -25 96 59 180 212 211 70 14 89 38 63 76 -18 24 -65 27 -129 7z"/>
<path d="M6637 769 c-23 -17 -32 -19 -64 -10 -60 17 -163 13 -203 -7 -47 -23
-93 -87 -119 -163 -43 -129 -19 -236 66 -286 58 -34 172 -43 247 -19 48 15 50
14 64 -5 10 -14 23 -19 45 -17 l32 3 8 145 c4 80 6 192 5 249 -3 88 -6 105
-23 117 -24 18 -27 18 -58 -7z m-59 -111 c43 -13 49 -33 44 -151 -4 -95 -5
-98 -32 -112 -86 -45 -210 -38 -251 13 -17 22 -20 36 -16 79 7 65 54 163 87
181 27 14 109 9 168 -10z"/>
</g>
</svg>
