<svg version="1.0" xmlns="http://www.w3.org/2000/svg"
 viewBox="0 0 416.000000 136.000000"
 preserveAspectRatio="xMidYMid meet">
<g transform="translate(0.000000,136.000000) scale(0.100000,-0.100000)"
fill="currentColor" stroke="none">
<path d="M3455 1101 c-76 -20 -141 -76 -174 -152 -29 -64 -131 -518 -131 -579
0 -102 44 -150 135 -150 53 0 102 20 136 56 28 30 39 30 39 2 0 -36 15 -50 45
-46 l28 3 57 248 57 247 -103 0 -103 0 -11 -57 c-7 -32 -15 -63 -17 -70 -3 -8
3 -13 16 -13 27 0 27 -23 2 -113 -22 -80 -45 -109 -80 -105 -41 5 -38 51 18
294 58 250 69 279 106 288 53 13 64 -20 38 -121 -5 -22 -3 -23 75 -23 l81 0 8
38 c12 63 9 167 -7 196 -8 15 -28 35 -44 43 -34 18 -128 26 -171 14z"/>
<path d="M1516 1088 c-2 -7 -11 -41 -19 -75 l-15 -63 89 0 c54 0 89 -4 89 -10
0 -6 -11 -27 -24 -48 -13 -20 -87 -144 -164 -274 -115 -195 -143 -249 -156
-307 -9 -38 -16 -72 -16 -75 0 -4 83 -6 183 -6 l184 0 12 58 c7 31 15 65 17
75 5 15 -4 17 -91 17 -85 0 -96 2 -91 16 3 9 79 137 167 285 139 232 164 279
179 344 l17 75 -179 0 c-134 0 -180 -3 -182 -12z"/>
<path d="M1847 672 c-54 -235 -98 -430 -98 -434 1 -5 79 -8 175 -8 l174 0 16
69 c9 39 16 75 16 80 0 7 -34 11 -90 11 -49 0 -90 3 -90 6 0 6 16 72 41 167
l10 37 83 0 83 0 12 58 c7 31 15 67 18 80 5 21 3 22 -76 22 -58 0 -81 3 -81
13 1 6 9 46 18 87 l18 75 88 5 89 5 18 75 c10 41 18 76 19 78 0 1 -78 2 -172
2 l-173 0 -98 -428z"/>
<path d="M2367 1078 c-3 -13 -47 -201 -97 -418 -50 -217 -93 -403 -96 -412 -5
-17 8 -18 174 -18 l179 0 12 58 c7 31 15 67 18 80 5 22 3 22 -86 22 -50 0 -91
3 -91 8 0 4 10 51 22 104 l21 97 86 3 86 3 11 53 c7 29 15 64 18 77 l6 25 -86
0 c-65 0 -85 3 -81 13 2 6 12 47 22 90 l19 77 88 0 c87 0 88 0 94 28 3 15 11
51 18 80 l13 52 -172 0 c-171 0 -173 0 -178 -22z"/>
<path d="M2795 1088 c-5 -18 -195 -845 -195 -852 0 -3 35 -6 79 -6 l79 0 32
137 c18 76 39 170 48 208 9 39 20 75 25 80 5 6 6 -78 2 -208 l-8 -218 83 3 83
3 98 425 c54 234 99 428 99 433 0 4 -35 7 -78 7 l-79 0 -48 -210 c-26 -115
-52 -207 -56 -204 -5 3 -6 17 -4 32 2 15 7 107 10 205 l6 177 -86 0 c-60 0
-87 -4 -90 -12z"/>
<path d="M3805 1088 c-6 -19 -195 -842 -195 -850 0 -5 35 -8 78 -8 l78 0 100
435 101 435 -79 0 c-54 0 -80 -4 -83 -12z"/>
<path d="M1128 912 c-4 -15 -18 -21 -63 -27 l-58 -7 39 -18 c21 -9 54 -31 72
-49 l32 -31 0 62 c0 67 -13 106 -22 70z"/>
<path d="M978 883 c7 -3 16 -2 19 1 4 3 -2 6 -13 5 -11 0 -14 -3 -6 -6z"/>
<path d="M726 805 c-3 -8 -14 -15 -24 -15 -11 0 -25 -7 -32 -15 -7 -8 -22 -14
-34 -13 -32 2 -239 -54 -255 -70 -11 -11 -17 -10 -37 9 -34 32 -30 10 9 -45
60 -84 160 -136 260 -136 l52 0 0 88 c0 94 13 131 63 185 14 15 21 27 15 27
-6 0 -13 -7 -17 -15z"/>
<path d="M856 805 c-47 -16 -103 -69 -122 -112 -19 -44 -18 -127 3 -166 9 -18
56 -92 105 -166 l90 -133 80 118 c43 66 90 140 104 166 89 173 -75 359 -260
293z m124 -100 c39 -20 60 -53 60 -92 0 -70 -43 -113 -116 -113 -48 0 -104 53
-104 99 0 46 26 90 63 106 42 18 62 18 97 0z"/>
</g>
</svg>